{"asset":{"version":"2.0","generator":"babylon.js glTF exporter for Autodesk MAYA 2022 v20240312.5"},"scene":0,"scenes":[{"nodes":[0]}],"nodes":[{"children":[1],"name":"group3"},{"children":[2],"translation":[0.2787378,0.0236993618,0.3551043],"name":"FBXASC229FBXASC183FBXASC165FBXASC229FBXASC142FBXASC130FBXASC230FBXASC136FBXASC191"},{"children":[3,4,5,6,7,8,9,10,11],"translation":[-1.03172493,0.117871441,0.06993571],"name":"group"},{"mesh":0,"translation":[-0.000247208285,-0.0112459743,-0.000494468841],"rotation":[5.05762159E-07,0.707106769,-0.707106769,5.05762159E-07],"scale":[6.58410358,6.58410358,-6.58410358],"name":"yanglintaobao888_2501"},{"mesh":1,"translation":[-0.0002476044,-0.0120185185,-0.000495027052],"rotation":[5.29463229E-08,0.707106769,-0.707106769,5.29463229E-08],"scale":[6.58410358,6.58410358,6.58410358],"name":"yanglintaobao888_2502"},{"mesh":2,"translation":[0.000609365758,-0.00979891047,0.000202316689],"rotation":[-1.17887843E-14,1.0,1.56958237E-07,7.54978942E-08],"scale":[6.58410358,6.58410358,6.58410358],"name":"yanglintaobao888_2503"},{"mesh":3,"translation":[0.0006093597,-0.0173886921,0.0002023736],"rotation":[-1.17887843E-14,1.0,1.56958237E-07,7.54978942E-08],"scale":[6.58410358,34.4056473,6.58410358],"name":"yanglintaobao888_2504"},{"mesh":4,"translation":[0.0006094187,0.038556423,0.000203100935],"rotation":[-5.320779E-08,0.707106769,-0.707106769,-5.320779E-08],"scale":[6.58410358,6.58410358,-6.58410358],"name":"yanglintaobao888_2505"},{"mesh":5,"translation":[-0.00024755756,0.0519123,-0.000226143762],"rotation":[-1.56958237E-07,-7.54978942E-08,-1.18500163E-14,1.0],"scale":[6.58410358,34.4056473,-6.58410358],"name":"yanglintaobao888_2506"},{"mesh":6,"translation":[0.000609551033,-0.00435417425,0.000203030664],"rotation":[-0.707106769,0.0,0.0,0.707106769],"scale":[6.58410358,6.58410358,6.58410358],"name":"yanglintaobao888_2507"},{"mesh":7,"translation":[-0.00024787357,-0.0397996828,0.0002027747],"rotation":[-0.707106769,0.0,0.0,0.707106769],"scale":[6.58410358,6.58410358,6.58410358],"name":"yanglintaobao888_2508"},{"mesh":8,"translation":[-0.00144745142,-0.026941346,0.00020204304],"rotation":[5.76011665E-08,-0.707106769,5.760116E-08,0.7071068],"scale":[6.58410358,6.58410358,-6.58410358],"name":"yanglintaobao888_2509"}],"meshes":[{"primitives":[{"attributes":{"POSITION":1,"TANGENT":2,"NORMAL":3,"TEXCOORD_0":4},"indices":0,"material":0}],"name":"yanglintaobao888_2501"},{"primitives":[{"attributes":{"POSITION":6,"TANGENT":7,"NORMAL":8,"TEXCOORD_0":9},"indices":5,"material":1}],"name":"yanglintaobao888_2502"},{"primitives":[{"attributes":{"POSITION":11,"TANGENT":12,"NORMAL":13,"TEXCOORD_0":14},"indices":10,"material":2}],"name":"yanglintaobao888_2503"},{"primitives":[{"attributes":{"POSITION":16,"TANGENT":17,"NORMAL":18,"TEXCOORD_0":19},"indices":15,"material":2}],"name":"yanglintaobao888_2504"},{"primitives":[{"attributes":{"POSITION":21,"TANGENT":22,"NORMAL":23,"TEXCOORD_0":24},"indices":20,"material":3}],"name":"yanglintaobao888_2505"},{"primitives":[{"attributes":{"POSITION":26,"TANGENT":27,"NORMAL":28,"TEXCOORD_0":29},"indices":25,"material":4}],"name":"yanglintaobao888_2506"},{"primitives":[{"attributes":{"POSITION":31,"TANGENT":32,"NORMAL":33,"TEXCOORD_0":34},"indices":30,"material":5}],"name":"yanglintaobao888_2507"},{"primitives":[{"attributes":{"POSITION":36,"TANGENT":37,"NORMAL":38,"TEXCOORD_0":39},"indices":35,"material":6}],"name":"yanglintaobao888_2508"},{"primitives":[{"attributes":{"POSITION":41,"TANGENT":42,"NORMAL":43,"TEXCOORD_0":44},"indices":40,"material":7}],"name":"yanglintaobao888_2509"}],"accessors":[{"bufferView":0,"componentType":5123,"count":6,"type":"SCALAR","name":"accessorIndices"},{"bufferView":1,"componentType":5126,"count":4,"max":[0.03983544,0.0181195568,0.0],"min":[-0.03983544,-0.0181195568,0.0],"type":"VEC3","name":"accessorPositions"},{"bufferView":2,"componentType":5126,"count":4,"type":"VEC4","name":"accessorTangents"},{"bufferView":1,"byteOffset":48,"componentType":5126,"count":4,"type":"VEC3","name":"accessorNormals"},{"bufferView":3,"componentType":5126,"count":4,"type":"VEC2","name":"accessorUVs"},{"bufferView":0,"byteOffset":12,"componentType":5123,"count":6,"type":"SCALAR","name":"accessorIndices"},{"bufferView":1,"byteOffset":96,"componentType":5126,"count":4,"max":[0.039835453,0.0181195252,0.0],"min":[-0.039835453,-0.0181195252,0.0],"type":"VEC3","name":"accessorPositions"},{"bufferView":2,"byteOffset":64,"componentType":5126,"count":4,"type":"VEC4","name":"accessorTangents"},{"bufferView":1,"byteOffset":144,"componentType":5126,"count":4,"type":"VEC3","name":"accessorNormals"},{"bufferView":3,"byteOffset":32,"componentType":5126,"count":4,"type":"VEC2","name":"accessorUVs"},{"bufferView":0,"byteOffset":24,"componentType":5123,"count":486,"type":"SCALAR","name":"accessorIndices"},{"bufferView":1,"byteOffset":192,"componentType":5126,"count":324,"max":[0.039835453,0.00338471215,0.0183555856],"min":[-0.039835453,-0.00338471215,-0.0183555856],"type":"VEC3","name":"accessorPositions"},{"bufferView":2,"byteOffset":128,"componentType":5126,"count":324,"type":"VEC4","name":"accessorTangents"},{"bufferView":1,"byteOffset":4080,"componentType":5126,"count":324,"type":"VEC3","name":"accessorNormals"},{"bufferView":3,"byteOffset":64,"componentType":5126,"count":324,"type":"VEC2","name":"accessorUVs"},{"bufferView":0,"byteOffset":996,"componentType":5123,"count":180,"type":"SCALAR","name":"accessorIndices"},{"bufferView":1,"byteOffset":7968,"componentType":5126,"count":90,"max":[0.0374054,0.00259121973,0.0164783671],"min":[-0.0374054,0.00149157073,-0.0164785683],"type":"VEC3","name":"accessorPositions"},{"bufferView":2,"byteOffset":5312,"componentType":5126,"count":90,"type":"VEC4","name":"accessorTangents"},{"bufferView":1,"byteOffset":9048,"componentType":5126,"count":90,"type":"VEC3","name":"accessorNormals"},{"bufferView":3,"byteOffset":2656,"componentType":5126,"count":90,"type":"VEC2","name":"accessorUVs"},{"bufferView":0,"byteOffset":1356,"componentType":5123,"count":168,"type":"SCALAR","name":"accessorIndices"},{"bufferView":1,"byteOffset":10128,"componentType":5126,"count":100,"max":[0.0399657264,0.0184858125,0.00649787672],"min":[-0.0399657264,-0.0184858125,-0.00100420625],"type":"VEC3","name":"accessorPositions"},{"bufferView":2,"byteOffset":6752,"componentType":5126,"count":100,"type":"VEC4","name":"accessorTangents"},{"bufferView":1,"byteOffset":11328,"componentType":5126,"count":100,"type":"VEC3","name":"accessorNormals"},{"bufferView":3,"byteOffset":3376,"componentType":5126,"count":100,"type":"VEC2","name":"accessorUVs"},{"bufferView":0,"byteOffset":1692,"componentType":5123,"count":912,"type":"SCALAR","name":"accessorIndices"},{"bufferView":1,"byteOffset":12528,"componentType":5126,"count":396,"max":[0.039835453,0.0006121216,0.0182904582],"min":[-0.039835453,-0.0006121216,-0.0182904582],"type":"VEC3","name":"accessorPositions"},{"bufferView":2,"byteOffset":8352,"componentType":5126,"count":396,"type":"VEC4","name":"accessorTangents"},{"bufferView":1,"byteOffset":17280,"componentType":5126,"count":396,"type":"VEC3","name":"accessorNormals"},{"bufferView":3,"byteOffset":4176,"componentType":5126,"count":396,"type":"VEC2","name":"accessorUVs"},{"bufferView":0,"byteOffset":3516,"componentType":5123,"count":8334,"type":"SCALAR","name":"accessorIndices"},{"bufferView":1,"byteOffset":22032,"componentType":5126,"count":3444,"max":[0.03996564,0.0196139328,0.00551377563],"min":[-0.03996564,-0.0196139328,-0.00551377563],"type":"VEC3","name":"accessorPositions"},{"bufferView":2,"byteOffset":14688,"componentType":5126,"count":3444,"type":"VEC4","name":"accessorTangents"},{"bufferView":1,"byteOffset":63360,"componentType":5126,"count":3444,"type":"VEC3","name":"accessorNormals"},{"bufferView":3,"byteOffset":7344,"componentType":5126,"count":3444,"type":"VEC2","name":"accessorUVs"},{"bufferView":0,"byteOffset":20184,"componentType":5123,"count":168,"type":"SCALAR","name":"accessorIndices"},{"bufferView":1,"byteOffset":104688,"componentType":5126,"count":148,"max":[0.039835453,0.0210893843,0.000130310611],"min":[-0.039835453,-0.0210893843,-0.000130310611],"type":"VEC3","name":"accessorPositions"},{"bufferView":2,"byteOffset":69792,"componentType":5126,"count":148,"type":"VEC4","name":"accessorTangents"},{"bufferView":1,"byteOffset":106464,"componentType":5126,"count":148,"type":"VEC3","name":"accessorNormals"},{"bufferView":3,"byteOffset":34896,"componentType":5126,"count":148,"type":"VEC2","name":"accessorUVs"},{"bufferView":0,"byteOffset":20520,"componentType":5123,"count":54,"type":"SCALAR","name":"accessorIndices"},{"bufferView":1,"byteOffset":108240,"componentType":5126,"count":36,"max":[0.0183555856,0.00182253844,0.0387158766],"min":[-0.0183555856,-0.00182253844,-0.0387158766],"type":"VEC3","name":"accessorPositions"},{"bufferView":2,"byteOffset":72160,"componentType":5126,"count":36,"type":"VEC4","name":"accessorTangents"},{"bufferView":1,"byteOffset":108672,"componentType":5126,"count":36,"type":"VEC3","name":"accessorNormals"},{"bufferView":3,"byteOffset":36080,"componentType":5126,"count":36,"type":"VEC2","name":"accessorUVs"}],"bufferViews":[{"buffer":0,"byteLength":20628,"name":"bufferViewScalar"},{"buffer":0,"byteOffset":20628,"byteLength":109104,"byteStride":12,"name":"bufferViewFloatVec3"},{"buffer":0,"byteOffset":129732,"byteLength":72736,"byteStride":16,"name":"bufferViewFloatVec4"},{"buffer":0,"byteOffset":202468,"byteLength":36368,"byteStride":8,"name":"bufferViewFloatVec2"}],"buffers":[{"uri":"jiandingchangfang.bin","byteLength":238836}],"materials":[{"pbrMetallicRoughness":{"baseColorTexture":{"index":0},"metallicFactor":0.0,"roughnessFactor":0.450053632},"name":"yanglintaobao888_ncl1_166"},{"pbrMetallicRoughness":{"baseColorTexture":{"index":0},"metallicFactor":0.0,"roughnessFactor":0.3967883},"name":"yanglintaobao888_ncl1_167"},{"pbrMetallicRoughness":{"baseColorFactor":[0.09680508,0.379240543,0.420024931,0.932236433],"metallicFactor":0.0,"roughnessFactor":0.341984332},"alphaMode":"BLEND","name":"Mat_PolygonCity_Water"},{"pbrMetallicRoughness":{"baseColorTexture":{"index":1},"metallicFactor":0.0,"roughnessFactor":0.450053632},"name":"yanglintaobao888_ncl1_168"},{"pbrMetallicRoughness":{"baseColorTexture":{"index":2},"metallicFactor":0.0,"roughnessFactor":0.450053632},"name":"yanglintaobao888_ncl1_169"},{"pbrMetallicRoughness":{"baseColorTexture":{"index":3},"metallicFactor":0.0,"roughnessFactor":0.450053632},"name":"yanglintaobao888_ncl1_170"},{"pbrMetallicRoughness":{"baseColorTexture":{"index":4},"metallicFactor":0.0,"roughnessFactor":0.450053632},"name":"yanglintaobao888_ncl1_171"},{"pbrMetallicRoughness":{"baseColorTexture":{"index":5},"metallicFactor":0.0,"roughnessFactor":0.450053632},"name":"yanglintaobao888_ncl1_172"}],"textures":[{"sampler":0,"source":0,"name":"3d66Model-1463089-files-56.jpg"},{"sampler":0,"source":1,"name":"3d66Model-1463089-files-58.jpg"},{"sampler":0,"source":2,"name":"3d66Model-1463089-files-83.jpg"},{"sampler":0,"source":3,"name":"3d66Model-1463089-files-41.jpg"},{"sampler":0,"source":4,"name":"3d66Model-1463089-files-57.jpg"},{"sampler":0,"source":5,"name":"3d66Model-1463089-files-39.jpg"}],"images":[{"uri":"textures/3d66Model-1463089-files-56.jpg"},{"uri":"textures/3d66Model-1463089-files-58.jpg"},{"uri":"textures/3d66Model-1463089-files-83.jpg"},{"uri":"textures/3d66Model-1463089-files-41.jpg"},{"uri":"textures/3d66Model-1463089-files-57.jpg"},{"uri":"textures/3d66Model-1463089-files-39.jpg"}],"samplers":[{"magFilter":9729,"minFilter":9987}]}