{"asset":{"version":"2.0","generator":"babylon.js glTF exporter for Autodesk MAYA 2022 v20240312.5"},"scene":0,"scenes":[{"nodes":[0]}],"nodes":[{"children":[1],"name":"group3"},{"children":[2],"translation":[0.2787378,0.0236993618,0.3551043],"name":"FBXASC229FBXASC183FBXASC165FBXASC229FBXASC142FBXASC130FBXASC230FBXASC136FBXASC191"},{"children":[3,4,5,6,7,8,9],"translation":[-1.53344679,0.008188925,1.00775957],"name":"yanglintaobao888_94_2"},{"mesh":0,"translation":[5.08231E-06,-0.008874594,-6.5090594E-06],"rotation":[-2.38418579E-07,1.0,1.45989281E-23,6.123234E-17],"scale":[10.0,10.0,-10.0],"name":"yanglintaobao888_3481"},{"mesh":1,"translation":[-3.82868848E-06,0.0149160651,4.70078567E-06],"rotation":[-0.50000006,-0.49999997,-0.49999997,0.50000006],"scale":[10.0,10.0,-10.0],"name":"yanglintaobao888_3482"},{"mesh":2,"translation":[-1.556522E-06,-0.0272817183,9.093606E-07],"rotation":[-0.5000002,-0.4999998,-0.4999998,0.5000002],"scale":[10.0,10.0,10.0],"name":"yanglintaobao888_3483"},{"mesh":3,"translation":[1.22044867E-06,0.0413988978,-5.424216E-07],"rotation":[-0.707106769,0.0,0.0,0.707106769],"scale":[10.0,10.0,10.0],"name":"yanglintaobao888_3484"},{"mesh":4,"translation":[-1.61675007E-06,0.0447221175,3.232251E-06],"rotation":[-0.50000006,0.49999997,0.49999997,0.50000006],"scale":[10.0,10.0,10.0],"name":"yanglintaobao888_3485"},{"mesh":5,"translation":[-0.115811691,-0.0466576554,-5.373119E-07],"rotation":[-0.5000003,0.4999997,0.4999997,0.5000003],"scale":[10.0,10.0,10.0],"name":"yanglintaobao888_3486"},{"mesh":6,"translation":[-1.88649426E-06,-0.00324164773,4.510093E-06],"rotation":[0.0,0.0,-1.50678673E-07,1.0],"scale":[10.0,10.0,10.0],"name":"yanglintaobao888_3487"}],"meshes":[{"primitives":[{"attributes":{"POSITION":1,"TANGENT":2,"NORMAL":3,"TEXCOORD_0":4},"indices":0,"material":0}],"name":"yanglintaobao888_3481"},{"primitives":[{"attributes":{"POSITION":6,"TANGENT":7,"NORMAL":8,"TEXCOORD_0":9},"indices":5,"material":1}],"name":"yanglintaobao888_3482"},{"primitives":[{"attributes":{"POSITION":11,"TANGENT":12,"NORMAL":13,"TEXCOORD_0":14},"indices":10,"material":2}],"name":"yanglintaobao888_3483"},{"primitives":[{"attributes":{"POSITION":16,"TANGENT":17,"NORMAL":18,"TEXCOORD_0":19},"indices":15,"material":3}],"name":"yanglintaobao888_3484"},{"primitives":[{"attributes":{"POSITION":21,"TANGENT":22,"NORMAL":23,"TEXCOORD_0":24},"indices":20,"material":4}],"name":"yanglintaobao888_3485"},{"primitives":[{"attributes":{"POSITION":26,"TANGENT":27,"NORMAL":28,"TEXCOORD_0":29},"indices":25,"material":5}],"name":"yanglintaobao888_3486"},{"primitives":[{"attributes":{"POSITION":31,"TANGENT":32,"NORMAL":33,"TEXCOORD_0":34},"indices":30,"material":6}],"name":"yanglintaobao888_3487"}],"accessors":[{"bufferView":0,"componentType":5123,"count":264,"type":"SCALAR","name":"accessorIndices"},{"bufferView":1,"componentType":5126,"count":176,"max":[0.0221748725,0.00364715746,0.0087222755],"min":[-0.0221748725,-0.00364715746,-0.0087222755],"type":"VEC3","name":"accessorPositions"},{"bufferView":2,"componentType":5126,"count":176,"type":"VEC4","name":"accessorTangents"},{"bufferView":1,"byteOffset":2112,"componentType":5126,"count":176,"type":"VEC3","name":"accessorNormals"},{"bufferView":3,"componentType":5126,"count":176,"type":"VEC2","name":"accessorUVs"},{"bufferView":0,"byteOffset":528,"componentType":5123,"count":12,"type":"SCALAR","name":"accessorIndices"},{"bufferView":1,"byteOffset":4224,"componentType":5126,"count":8,"max":[0.008852456,0.02230519,0.00253457786],"min":[-0.008852456,-0.02230519,-0.00253457786],"type":"VEC3","name":"accessorPositions"},{"bufferView":2,"byteOffset":2816,"componentType":5126,"count":8,"type":"VEC4","name":"accessorTangents"},{"bufferView":1,"byteOffset":4320,"componentType":5126,"count":8,"type":"VEC3","name":"accessorNormals"},{"bufferView":3,"byteOffset":1408,"componentType":5126,"count":8,"type":"VEC2","name":"accessorUVs"},{"bufferView":0,"byteOffset":552,"componentType":5123,"count":12,"type":"SCALAR","name":"accessorIndices"},{"bufferView":1,"byteOffset":4416,"componentType":5126,"count":8,"max":[0.008852422,0.0223050546,0.00180739712],"min":[-0.008852422,-0.0223050546,-0.00180739712],"type":"VEC3","name":"accessorPositions"},{"bufferView":2,"byteOffset":2944,"componentType":5126,"count":8,"type":"VEC4","name":"accessorTangents"},{"bufferView":1,"byteOffset":4512,"componentType":5126,"count":8,"type":"VEC3","name":"accessorNormals"},{"bufferView":3,"byteOffset":1472,"componentType":5126,"count":8,"type":"VEC2","name":"accessorUVs"},{"bufferView":0,"byteOffset":576,"componentType":5123,"count":6,"type":"SCALAR","name":"accessorIndices"},{"bufferView":1,"byteOffset":4608,"componentType":5126,"count":4,"max":[0.0223051235,0.008852389,-3.3213746E-24],"min":[-0.0223051235,-0.008852389,-3.3213746E-24],"type":"VEC3","name":"accessorPositions"},{"bufferView":2,"byteOffset":3072,"componentType":5126,"count":4,"type":"VEC4","name":"accessorTangents"},{"bufferView":1,"byteOffset":4656,"componentType":5126,"count":4,"type":"VEC3","name":"accessorNormals"},{"bufferView":3,"byteOffset":1536,"componentType":5126,"count":4,"type":"VEC2","name":"accessorUVs"},{"bufferView":0,"byteOffset":588,"componentType":5123,"count":72,"type":"SCALAR","name":"accessorIndices"},{"bufferView":1,"byteOffset":4704,"componentType":5126,"count":40,"max":[0.008852371,0.0223050546,0.000323832326],"min":[-0.008852371,-0.0223050546,-0.000323832326],"type":"VEC3","name":"accessorPositions"},{"bufferView":2,"byteOffset":3136,"componentType":5126,"count":40,"type":"VEC4","name":"accessorTangents"},{"bufferView":1,"byteOffset":5184,"componentType":5126,"count":40,"type":"VEC3","name":"accessorNormals"},{"bufferView":3,"byteOffset":1568,"componentType":5126,"count":40,"type":"VEC2","name":"accessorUVs"},{"bufferView":0,"byteOffset":732,"componentType":5123,"count":54,"type":"SCALAR","name":"accessorIndices"},{"bufferView":1,"byteOffset":5664,"componentType":5126,"count":48,"max":[0.0110221086,0.009284494,0.0001301971],"min":[-0.0110221086,-0.009284495,-0.000130187385],"type":"VEC3","name":"accessorPositions"},{"bufferView":2,"byteOffset":3776,"componentType":5126,"count":48,"type":"VEC4","name":"accessorTangents"},{"bufferView":1,"byteOffset":6240,"componentType":5126,"count":48,"type":"VEC3","name":"accessorNormals"},{"bufferView":3,"byteOffset":1888,"componentType":5126,"count":48,"type":"VEC2","name":"accessorUVs"},{"bufferView":0,"byteOffset":840,"componentType":5123,"count":2058,"type":"SCALAR","name":"accessorIndices"},{"bufferView":1,"byteOffset":6816,"componentType":5126,"count":1023,"max":[0.0223050546,0.00447215652,0.009837222],"min":[-0.0223050546,-0.00447215652,-0.009837222],"type":"VEC3","name":"accessorPositions"},{"bufferView":2,"byteOffset":4544,"componentType":5126,"count":1023,"type":"VEC4","name":"accessorTangents"},{"bufferView":1,"byteOffset":19092,"componentType":5126,"count":1023,"type":"VEC3","name":"accessorNormals"},{"bufferView":3,"byteOffset":2272,"componentType":5126,"count":1023,"type":"VEC2","name":"accessorUVs"}],"bufferViews":[{"buffer":0,"byteLength":4956,"name":"bufferViewScalar"},{"buffer":0,"byteOffset":4956,"byteLength":31368,"byteStride":12,"name":"bufferViewFloatVec3"},{"buffer":0,"byteOffset":36324,"byteLength":20912,"byteStride":16,"name":"bufferViewFloatVec4"},{"buffer":0,"byteOffset":57236,"byteLength":10456,"byteStride":8,"name":"bufferViewFloatVec2"}],"buffers":[{"uri":"pingdingchangfang.bin","byteLength":67692}],"materials":[{"pbrMetallicRoughness":{"baseColorFactor":[0.616,0.7724,0.8,1.0],"metallicFactor":0.0,"roughnessFactor":0.240331292},"name":"FBXASC230FBXASC157FBXASC144FBXASC232FBXASC180FBXASC168"},{"pbrMetallicRoughness":{"baseColorTexture":{"index":0},"metallicFactor":0.0,"roughnessFactor":0.3967883},"name":"yanglintaobao888FBXASC04617_ncl1_16"},{"pbrMetallicRoughness":{"baseColorTexture":{"index":0},"metallicFactor":0.0,"roughnessFactor":0.450053632},"name":"yanglintaobao888FBXASC04615_ncl1_18"},{"pbrMetallicRoughness":{"baseColorTexture":{"index":1},"metallicFactor":0.0,"roughnessFactor":0.292422682},"name":"yanglintaobao888FBXASC0468_ncl1_37"},{"pbrMetallicRoughness":{"baseColorTexture":{"index":2},"metallicFactor":0.0,"roughnessFactor":0.450053632},"name":"yanglintaobao888FBXASC04627_ncl1_7"},{"pbrMetallicRoughness":{"baseColorTexture":{"index":3},"metallicFactor":0.0,"roughnessFactor":0.450053632},"name":"yanglintaobao888FBXASC04632_ncl1_3"},{"pbrMetallicRoughness":{"baseColorTexture":{"index":4},"metallicFactor":0.0,"roughnessFactor":0.450053632},"name":"yanglintaobao888FBXASC04621_ncl1_12"}],"textures":[{"sampler":0,"source":0,"name":"3d66Model-1463089-files-56.jpg"},{"sampler":0,"source":1,"name":"3d66Model-1463089-files-48.jpg"},{"sampler":0,"source":2,"name":"3d66Model-1463089-files-58.jpg"},{"sampler":0,"source":3,"name":"3d66Model-1463089-files-57.jpg"},{"sampler":0,"source":4,"name":"3d66Model-1463089-files-41.jpg"}],"images":[{"uri":"3d66Model-1463089-files-56.jpg"},{"uri":"3d66Model-1463089-files-48.jpg"},{"uri":"3d66Model-1463089-files-58.jpg"},{"uri":"3d66Model-1463089-files-57.jpg"},{"uri":"3d66Model-1463089-files-41.jpg"}],"samplers":[{"magFilter":9729,"minFilter":9987}]}